<?xml version="1.0" encoding="utf-8"?>
<!-- Generator: Adobe Illustrator 19.2.0, SVG Export Plug-In . SVG Version: 6.00 Build 0)  -->
<svg version="1.1" id="Camada_1" xmlns="http://www.w3.org/2000/svg" xmlns:xlink="http://www.w3.org/1999/xlink" x="0px" y="0px"
	 viewBox="0 0 16 16" style="enable-background:new 0 0 16 16;" xml:space="preserve">
<style type="text/css">
	.st0{enable-background:new    ;}
	.st1{fill:#FFC200;}
</style>
<g class="st0">
	<path class="st1" d="M6.4,4.4c0.1-2.2,0.1-2.5,0.4-2.7c0.2-0.1,1,0,1.1,0.1C8.1,2,8.2,2.5,8.2,6.3c0.1,4.8,0.1,5.1-0.6,6.4
		c-1,2.2-4.1,1.8-4.9,1.7c-1-0.2-1.4-0.6-1.7-1.8c-0.3-1-0.3-9.3,0-9.9c0.2-0.3,0.6-0.6,1.3-0.5c0.6,0,1,0.1,1.2,0.5
		C3.8,3,3.9,4.4,3.9,7.4c0.1,2.5,0.2,4.2,0.3,4.8c0.1,0.6,0.3,0.9,0.3,0.8c1.6-0.8,1.3-2.3,1.5-3.9C6.3,6.9,6.4,6.7,6.4,4.4z"/>
	<path class="st1" d="M9.5,2.6C9.6,2.2,9.8,2,10.1,1.9c0.6-0.2,1.2,0,1.4,0.4c0.1,0.1,0.1,0.3,0.1,0.4c0,0.1,0.1,0.1,0.8-0.1
		c0.8-0.1,1.6-0.2,2.2,0.2c1.2,0.6,0.9,1.8,0.7,2.2c-0.6,1.9-2.5,2.6-3,2.8c-0.4,0.1-0.5,0.1-0.5,3.2c0,2.7-0.1,3-0.1,3.2
		c-0.9,0.8-2.1,0.3-2.3,0.1c-0.3-0.2-0.3-0.2-0.2-2.4C9.2,8.5,9.3,3,9.5,2.6z M13.5,4.3c0-0.3-0.1-0.7-0.1-0.8
		c-0.1-0.3-0.4-0.3-1-0.1c-0.7,0.3-0.7,0.3-0.6,1.8c0.1,0.8,0.1,1.4,0.1,1.4C12,6.7,13.7,5.6,13.5,4.3z"/>
</g>
</svg>
